<?xml version="1.0" encoding="UTF-8"?>
<!DOCTYPE svg PUBLIC "-//W3C//DTD SVG 1.1//EN" "http://www.w3.org/Graphics/SVG/1.1/DTD/svg11.dtd">
<svg xmlns="http://www.w3.org/2000/svg" version="1.1" width="1200px" height="1188px" style="shape-rendering:geometricPrecision; text-rendering:geometricPrecision; image-rendering:optimizeQuality; fill-rule:evenodd; clip-rule:evenodd" xmlns:xlink="http://www.w3.org/1999/xlink">
<g><path style="opacity:0.992" fill="#203685" d="M 565.5,-0.5 C 588.5,-0.5 611.5,-0.5 634.5,-0.5C 815.519,13.5813 962.685,90.9146 1076,231.5C 1151.65,330.922 1192.81,443.255 1199.5,568.5C 1199.5,585.167 1199.5,601.833 1199.5,618.5C 1189.59,781.848 1125.26,919.348 1006.5,1031C 900.781,1125.66 776.781,1177.82 634.5,1187.5C 611.167,1187.5 587.833,1187.5 564.5,1187.5C 383.482,1173.42 236.315,1096.09 123,955.5C 47.3502,856.073 6.18358,743.74 -0.5,618.5C -0.5,601.833 -0.5,585.167 -0.5,568.5C 12.3154,378.666 94.3154,226.833 245.5,113C 341.185,44.7128 447.852,6.87947 565.5,-0.5 Z"/></g>
<g><path style="opacity:1" fill="#fefefe" d="M 571.5,30.5 C 724.539,26.0065 859.205,72.8399 975.5,171C 1109.57,292.759 1173.4,444.592 1167,626.5C 1155.26,782.466 1091.43,912.3 975.5,1016C 858.651,1114.73 723.318,1161.4 569.5,1156C 409.474,1144.73 275.974,1079.9 169,961.5C 61.194,833.038 16.8607,685.038 36,517.5C 60.5463,360.492 136.046,234.659 262.5,140C 354.761,73.6324 457.761,37.1324 571.5,30.5 Z"/></g>
<g><path style="opacity:1" fill="#e4161a" d="M 666.5,63.5 C 672.545,63.3032 678.545,63.6365 684.5,64.5C 683.833,71.1667 683.167,77.8333 682.5,84.5C 676.464,84.6401 670.464,84.3068 664.5,83.5C 665.167,76.8333 665.833,70.1667 666.5,63.5 Z"/></g>
<g><path style="opacity:1" fill="#e4191c" d="M 467.5,72.5 C 468.675,72.281 469.675,72.6143 470.5,73.5C 472.5,78.8333 474.5,84.1667 476.5,89.5C 472.255,91.3602 467.921,93.0268 463.5,94.5C 461.169,88.5096 458.836,82.5096 456.5,76.5C 460.271,75.1351 463.937,73.8018 467.5,72.5 Z"/></g>
<g><path style="opacity:1" fill="#e4181b" d="M 442.5,79.5 C 443.75,79.5774 444.583,80.244 445,81.5C 446.601,86.1358 448.101,90.8025 449.5,95.5C 449.392,96.4419 449.059,97.2753 448.5,98C 445,99.1667 441.5,100.333 438,101.5C 437.055,101.095 436.388,100.428 436,99.5C 434.462,94.3848 432.628,89.3848 430.5,84.5C 434.591,82.8102 438.591,81.1436 442.5,79.5 Z"/></g>
<g><path style="opacity:1" fill="#e31117" d="M 608.5,101.5 C 609.482,98.0381 609.815,94.3714 609.5,90.5C 612.833,90.5 616.167,90.5 619.5,90.5C 622.5,90.5 625.5,90.5 628.5,90.5C 627.146,128.831 625.813,167.164 624.5,205.5C 618.132,205.83 611.798,205.496 605.5,204.5C 593.667,177.5 581.833,150.5 570,123.5C 568.917,150.161 568.084,176.827 567.5,203.5C 561.167,203.5 554.833,203.5 548.5,203.5C 548.792,164.811 549.792,126.145 551.5,87.5C 558.09,87.189 564.59,87.5223 571,88.5C 582.392,114.951 594.059,141.284 606,167.5C 606.833,145.495 607.667,123.495 608.5,101.5 Z"/></g>
<g><path style="opacity:1" fill="#e31217" d="M 661.5,93.5 C 668.115,94.6353 674.782,95.302 681.5,95.5C 675.927,134.467 670.594,173.467 665.5,212.5C 658.803,212.115 652.136,211.448 645.5,210.5C 650.687,171.481 656.021,132.481 661.5,93.5 Z"/></g>
<g><path style="opacity:1" fill="#e30e16" d="M 720.5,96.5 C 727.438,99.0349 734.438,101.368 741.5,103.5C 736.535,133.755 732.368,164.088 729,194.5C 747.433,169.291 766.099,144.291 785,119.5C 791.769,121.421 798.269,123.921 804.5,127C 777.993,160.336 751.326,193.502 724.5,226.5C 719.615,224.372 714.615,222.538 709.5,221C 708.873,219.262 708.54,217.429 708.5,215.5C 712.877,175.864 716.877,136.197 720.5,96.5 Z"/></g>
<g><path style="opacity:1" fill="#e30f17" d="M 494.5,97.5 C 496.124,97.3601 497.29,98.0267 498,99.5C 506,127.5 514,155.5 522,183.5C 523.198,205.981 512.698,219.481 490.5,224C 478.408,226.462 467.408,224.128 457.5,217C 453.885,213.381 451.051,209.214 449,204.5C 439.965,176.394 431.131,148.228 422.5,120C 424.713,117.919 427.38,116.585 430.5,116C 433.393,115.369 436.226,114.536 439,113.5C 439.772,113.645 440.439,113.978 441,114.5C 449.996,141.489 458.996,168.489 468,195.5C 473.56,204.549 481.393,207.049 491.5,203C 498.495,200.175 502.162,195.008 502.5,187.5C 495.137,159.91 487.47,132.41 479.5,105C 479.833,104.167 480.167,103.333 480.5,102.5C 485.406,101.2 490.073,99.5337 494.5,97.5 Z"/></g>
<g><path style="opacity:1" fill="#eb4f54" d="M 619.5,90.5 C 616.167,90.5 612.833,90.5 609.5,90.5C 609.815,94.3714 609.482,98.0381 608.5,101.5C 608.5,97.5 608.5,93.5 608.5,89.5C 612.371,89.185 616.038,89.5184 619.5,90.5 Z"/></g>
<g><path style="opacity:1" fill="#e30d16" d="M 828.5,137.5 C 849.936,148.052 871.269,158.885 892.5,170C 893.022,170.561 893.355,171.228 893.5,172C 890.778,177.884 887.445,183.384 883.5,188.5C 869.167,181 854.833,173.5 840.5,166C 839.167,165.333 837.833,165.333 836.5,166C 832.041,173.084 827.708,180.25 823.5,187.5C 837.833,195.333 852.167,203.167 866.5,211C 862.957,215.916 859.79,221.083 857,226.5C 856.439,227.022 855.772,227.355 855,227.5C 841.333,220.5 827.667,213.5 814,206.5C 812.739,206.759 811.739,207.426 811,208.5C 806.5,216.333 802,224.167 797.5,232C 813.254,240.627 829.087,249.127 845,257.5C 842.656,263.896 839.323,269.896 835,275.5C 812.754,263.961 790.588,252.294 768.5,240.5C 788.555,206.132 808.555,171.799 828.5,137.5 Z"/></g>
<g><path style="opacity:1" fill="#e30f16" d="M 323.5,174.5 C 337.182,174.008 347.849,179.341 355.5,190.5C 351.174,194.657 346.674,198.657 342,202.5C 334.212,194.381 325.712,193.547 316.5,200C 306.011,209.279 306.011,218.612 316.5,228C 321.674,228.126 326.674,227.126 331.5,225C 339.631,220.524 347.965,216.524 356.5,213C 368.13,210.765 377.63,214.265 385,223.5C 402.952,250.858 397.452,272.358 368.5,288C 351.992,293.22 338.325,289.053 327.5,275.5C 332.167,271.5 336.833,267.5 341.5,263.5C 348.779,271.404 357.112,272.571 366.5,267C 374.186,261.796 377.686,254.629 377,245.5C 373.905,237.4 368.071,233.9 359.5,235C 349.756,239.036 340.089,243.37 330.5,248C 317.977,251.492 307.81,247.992 300,237.5C 285.034,216.237 287.867,197.737 308.5,182C 313.313,178.927 318.313,176.427 323.5,174.5 Z"/></g>
<g><path style="opacity:1" fill="#e30e16" d="M 922.5,202.5 C 936.776,214.942 950.276,228.275 963,242.5C 971.698,255.244 971.365,267.911 962,280.5C 948.889,296.23 933.389,299.896 915.5,291.5C 916.606,295.777 916.772,300.11 916,304.5C 912.068,320.46 907.235,336.127 901.5,351.5C 895.011,346.355 889.678,340.355 885.5,333.5C 889.176,319.129 893.009,304.796 897,290.5C 897.888,285.382 897.555,280.382 896,275.5C 893.705,272.203 891.038,269.203 888,266.5C 876,278.5 864,290.5 852,302.5C 847.167,297.667 842.333,292.833 837.5,288C 866.035,259.632 894.368,231.132 922.5,202.5 Z"/></g>
<g><path style="opacity:1" fill="#233886" d="M 574.5,230.5 C 699.413,226.048 802.246,271.048 883,365.5C 956.704,461.322 979.704,568.322 952,686.5C 923.84,786.713 864.674,862.547 774.5,914C 678.069,963.923 578.403,971.589 475.5,937C 351.593,887.755 274.093,798.255 243,668.5C 218.728,528.301 259.228,410.801 364.5,316C 425.49,265.682 495.49,237.182 574.5,230.5 Z"/></g>
<g><path style="opacity:1" fill="#e30e16" d="M 244.5,231.5 C 249.441,235.265 254.274,239.265 259,243.5C 259.667,244.5 259.667,245.5 259,246.5C 247.833,258.333 236.667,270.167 225.5,282C 232.317,287.983 238.984,294.149 245.5,300.5C 255.816,289.016 266.316,277.683 277,266.5C 282.316,270.649 287.149,275.315 291.5,280.5C 281.167,291.833 270.833,303.167 260.5,314.5C 266.959,320.458 273.292,326.624 279.5,333C 280.705,334.271 282.038,334.937 283.5,335C 294.644,322.022 306.311,309.522 318.5,297.5C 323.948,301.445 328.948,305.945 333.5,311C 317.344,328.823 300.844,346.323 284,363.5C 254.9,337.019 226.067,310.186 197.5,283C 213.373,265.963 229.04,248.796 244.5,231.5 Z"/></g>
<g><path style="opacity:1" fill="#fefbfb" d="M 922.5,231.5 C 931.477,238.311 939.31,246.311 946,255.5C 947.526,265.276 943.693,272.109 934.5,276C 929.959,277.114 925.959,276.114 922.5,273C 915.197,266.698 908.197,260.032 901.5,253C 908.703,245.965 915.703,238.798 922.5,231.5 Z"/></g>
<g><path style="opacity:1" fill="#fefefe" d="M 568.5,246.5 C 707.47,239.904 815.97,293.571 894,407.5C 946.489,493.04 960.822,584.707 937,682.5C 906.794,789.035 841.627,865.869 741.5,913C 661.971,946.802 580.637,951.802 497.5,928C 407.428,898.739 339.262,842.906 293,760.5C 248.93,675.868 239.597,587.535 265,495.5C 298.496,390.669 365.663,316.169 466.5,272C 499.506,259.082 533.506,250.582 568.5,246.5 Z"/></g>
<g><path style="opacity:1" fill="#e30e16" d="M 996.5,298.5 C 1021.07,297.217 1036.57,308.55 1043,332.5C 1043.93,346.827 1038.1,356.994 1025.5,363C 1021.77,358.941 1018.44,354.608 1015.5,350C 1025.06,339.785 1024.73,329.785 1014.5,320C 1005.97,313.634 998.139,314.467 991,322.5C 990.219,323.729 989.719,325.062 989.5,326.5C 990.224,330.953 991.391,335.286 993,339.5C 997.644,347.77 1001.31,356.437 1004,365.5C 1005.18,376.99 1001.01,386.156 991.5,393C 980.241,400.9 967.908,403.566 954.5,401C 940.269,393.776 930.769,382.609 926,367.5C 924.703,358.714 926.703,350.714 932,343.5C 935.887,338.37 940.221,333.703 945,329.5C 948.713,334.424 952.546,339.258 956.5,344C 943.043,354.306 942.043,365.639 953.5,378C 963.987,387.236 973.154,386.069 981,374.5C 981.667,370.833 981.667,367.167 981,363.5C 976.449,354.399 972.449,345.065 969,335.5C 967.451,327.881 968.784,320.881 973,314.5C 979.461,307.029 987.294,301.696 996.5,298.5 Z"/></g>
<g><path style="opacity:1" fill="#e30e16" d="M 177.5,314.5 C 178.496,314.414 179.329,314.748 180,315.5C 195,336.5 210,357.5 225,378.5C 237.912,387.374 251.078,395.874 264.5,404C 260.916,409.165 257.583,414.498 254.5,420C 241.43,413.649 228.764,406.316 216.5,398C 189.436,394.495 162.436,390.662 135.5,386.5C 139.2,380.63 142.7,374.63 146,368.5C 146.893,367.919 147.893,367.585 149,367.5C 166.097,371.084 183.264,373.918 200.5,376C 189.667,362.5 178.833,349 168,335.5C 167.333,334.167 167.333,332.833 168,331.5C 171.179,325.806 174.345,320.139 177.5,314.5 Z"/></g>
<g><path style="opacity:1" fill="#b2b2b2" d="M 586.5,327.5 C 638.386,325.337 673.552,348.337 692,396.5C 693.636,401.375 694.469,406.375 694.5,411.5C 658.833,411.5 623.167,411.5 587.5,411.5C 587.334,418.175 587.5,424.842 588,431.5C 592.269,440.386 598.769,442.552 607.5,438C 609.741,436.261 611.408,434.094 612.5,431.5C 640.159,430.5 667.825,430.167 695.5,430.5C 690.554,474.231 667.221,503.064 625.5,517C 581.469,527.326 545.969,514.493 519,478.5C 492.446,432.344 497.613,390.177 534.5,352C 549.718,339.223 567.051,331.056 586.5,327.5 Z"/></g>
<g><path style="opacity:1" fill="#e3141a" d="M 1093.5,365.5 C 1094.82,365.33 1095.99,365.663 1097,366.5C 1098.58,369.994 1100.41,373.327 1102.5,376.5C 1097.86,379.824 1092.86,382.657 1087.5,385C 1086.5,385.667 1085.5,385.667 1084.5,385C 1082.63,381.419 1080.63,377.919 1078.5,374.5C 1083.36,371.237 1088.36,368.237 1093.5,365.5 Z"/></g>
<g><path style="opacity:1" fill="#e31017" d="M 1065.5,376.5 C 1069.31,381.433 1072.64,386.766 1075.5,392.5C 1075.02,393.478 1074.36,394.311 1073.5,395C 1039.17,412.167 1004.83,429.333 970.5,446.5C 967.5,441.167 964.5,435.833 961.5,430.5C 961.709,429.914 962.043,429.414 962.5,429C 996.863,411.485 1031.2,393.985 1065.5,376.5 Z"/></g>
<g><path style="opacity:1" fill="#e4141a" d="M 95.5,409.5 C 102.567,411.203 108.901,414.203 114.5,418.5C 113.031,423.574 111.364,428.574 109.5,433.5C 103.592,430.962 97.7584,428.295 92,425.5C 92.8336,420.158 94.0002,414.825 95.5,409.5 Z"/></g>
<g><path style="opacity:1" fill="#e30f17" d="M 124.5,420.5 C 162.165,434.167 199.499,448.667 236.5,464C 233.524,469.453 230.691,474.953 228,480.5C 191.095,465.963 154.262,451.296 117.5,436.5C 120.228,431.308 122.561,425.975 124.5,420.5 Z"/></g>
<g><path style="opacity:1" fill="#e31017" d="M 1085.5,430.5 C 1087.5,430.5 1089.5,430.5 1091.5,430.5C 1096.85,454.722 1102.52,478.888 1108.5,503C 1108.36,503.772 1108.02,504.439 1107.5,505C 1101.24,506.619 1094.91,507.786 1088.5,508.5C 1086.83,500.811 1084.99,493.144 1083,485.5C 1082.61,484.572 1081.95,483.905 1081,483.5C 1050.15,490.78 1019.32,498.113 988.5,505.5C 985.88,499.018 983.88,492.351 982.5,485.5C 1013.53,478.273 1044.53,470.94 1075.5,463.5C 1074.17,453.504 1072.83,443.504 1071.5,433.5C 1076.45,433.283 1081.11,432.283 1085.5,430.5 Z"/></g>
<g><path style="opacity:1" fill="#1f3685" d="M 699.5,440.5 C 764.259,531.442 830.426,621.442 898,710.5C 908.017,727.5 906.183,743 892.5,757C 889.036,759.047 885.37,760.713 881.5,762C 692.5,762.667 503.5,762.667 314.5,762C 301.078,757.345 294.411,747.845 294.5,733.5C 294.371,725.977 296.204,718.977 300,712.5C 366.733,622.699 432.733,532.366 498,441.5C 492.845,486.772 488.012,532.105 483.5,577.5C 486.101,620.88 505.768,654.046 542.5,677C 595.577,704.571 642.743,696.737 684,653.5C 705.246,628.43 714.912,599.43 713,566.5C 709.157,524.426 704.657,482.426 699.5,440.5 Z"/></g>
<g><path style="opacity:1" fill="#e30f16" d="M 126.5,480.5 C 132.758,480.19 138.924,480.524 145,481.5C 144.511,487.497 143.678,493.497 142.5,499.5C 127.465,498.376 118.799,505.21 116.5,520C 117.09,529.924 121.757,537.257 130.5,542C 145.159,550.248 160.826,553.248 177.5,551C 193.342,547.149 199.176,537.316 195,521.5C 191.735,514.408 186.235,510.075 178.5,508.5C 179.176,502.112 180.176,495.778 181.5,489.5C 207.285,496.143 218.785,512.81 216,539.5C 213.198,552.968 205.365,562.135 192.5,567C 164.662,575.103 138.662,571.103 114.5,555C 94.9238,539.132 91.0905,519.965 103,497.5C 109.055,489.265 116.888,483.598 126.5,480.5 Z"/></g>
<g><path style="opacity:1" fill="#ed636a" d="M 1120.5,614.5 C 1120.17,614.5 1119.83,614.5 1119.5,614.5C 1119.5,591.167 1119.5,567.833 1119.5,544.5C 1080.5,544.5 1041.5,544.5 1002.5,544.5C 1002.5,568.5 1002.5,592.5 1002.5,616.5C 1008.83,616.5 1015.17,616.5 1021.5,616.5C 1021.17,598.992 1021.5,581.659 1022.5,564.5C 1022.5,582.167 1022.5,599.833 1022.5,617.5C 1015.5,617.5 1008.5,617.5 1001.5,617.5C 1001.5,592.833 1001.5,568.167 1001.5,543.5C 1041.17,543.5 1080.83,543.5 1120.5,543.5C 1120.5,567.167 1120.5,590.833 1120.5,614.5 Z"/></g>
<g><path style="opacity:1" fill="#e30814" d="M 1119.5,614.5 C 1113.17,614.5 1106.83,614.5 1100.5,614.5C 1100.83,597.658 1100.5,580.992 1099.5,564.5C 1090.68,563.507 1081.68,563.173 1072.5,563.5C 1072.5,579.167 1072.5,594.833 1072.5,610.5C 1065.83,610.5 1059.17,610.5 1052.5,610.5C 1052.5,595.167 1052.5,579.833 1052.5,564.5C 1042.5,564.5 1032.5,564.5 1022.5,564.5C 1021.5,581.659 1021.17,598.992 1021.5,616.5C 1015.17,616.5 1008.83,616.5 1002.5,616.5C 1002.5,592.5 1002.5,568.5 1002.5,544.5C 1041.5,544.5 1080.5,544.5 1119.5,544.5C 1119.5,567.833 1119.5,591.167 1119.5,614.5 Z"/></g>
<g><path style="opacity:1" fill="#f2868a" d="M 1099.5,564.5 C 1090.83,564.5 1082.17,564.5 1073.5,564.5C 1073.83,580.009 1073.5,595.342 1072.5,610.5C 1072.5,594.833 1072.5,579.167 1072.5,563.5C 1081.68,563.173 1090.68,563.507 1099.5,564.5 Z"/></g>
<g><path style="opacity:1" fill="#e30b15" d="M 212.5,654.5 C 212.5,661.167 212.5,667.833 212.5,674.5C 172.167,674.5 131.833,674.5 91.5,674.5C 91.0613,654.454 91.5613,634.454 93,614.5C 96.2416,602.926 103.742,595.759 115.5,593C 126.818,591.038 137.484,592.705 147.5,598C 154.143,603.313 158.31,610.146 160,618.5C 164.925,611.573 171.092,606.073 178.5,602C 189.588,596.039 200.755,590.206 212,584.5C 212.667,592.5 212.667,600.5 212,608.5C 197.418,616.874 182.918,625.374 168.5,634C 165.894,635.938 164.061,638.438 163,641.5C 162.501,645.821 162.334,650.154 162.5,654.5C 179.167,654.5 195.833,654.5 212.5,654.5 Z"/></g>
<g><path style="opacity:1" fill="#fefcfc" d="M 121.5,613.5 C 134.452,610.656 141.618,615.656 143,628.5C 143.5,637.16 143.666,645.827 143.5,654.5C 133.167,654.5 122.833,654.5 112.5,654.5C 112.333,643.828 112.5,633.161 113,622.5C 114.688,618.315 117.521,615.315 121.5,613.5 Z"/></g>
<g><path style="opacity:1" fill="#f28388" d="M 1099.5,564.5 C 1100.5,580.992 1100.83,597.658 1100.5,614.5C 1106.83,614.5 1113.17,614.5 1119.5,614.5C 1119.83,614.5 1120.17,614.5 1120.5,614.5C 1113.69,615.491 1106.69,615.825 1099.5,615.5C 1099.5,598.5 1099.5,581.5 1099.5,564.5 Z"/></g>
<g><path style="opacity:1" fill="#e30e16" d="M 1029.5,631.5 C 1031.83,631.5 1034.17,631.5 1036.5,631.5C 1036.5,637.833 1036.5,644.167 1036.5,650.5C 1019.03,650.409 1011.53,659.076 1014,676.5C 1016.15,687.318 1022.65,691.818 1033.5,690C 1036.56,688.939 1039.06,687.106 1041,684.5C 1044.95,674.043 1048.28,663.376 1051,652.5C 1058.86,636.328 1071.69,630.494 1089.5,635C 1110.36,641.518 1118.86,655.685 1115,677.5C 1111.16,697.518 1098.99,707.184 1078.5,706.5C 1078.5,700.5 1078.5,694.5 1078.5,688.5C 1087.95,688.209 1093.78,683.543 1096,674.5C 1098.61,656.432 1091.28,649.766 1074,654.5C 1072.92,656.996 1071.59,659.33 1070,661.5C 1067.11,671.878 1064.11,682.211 1061,692.5C 1056.24,702.302 1048.41,707.802 1037.5,709C 1004.54,709.018 990.369,692.518 995,659.5C 997.201,651.653 1001.37,645.153 1007.5,640C 1014.47,635.85 1021.8,633.017 1029.5,631.5 Z"/></g>
<g><path style="opacity:1" fill="#f5a5a9" d="M 212.5,654.5 C 213.491,661.313 213.825,668.313 213.5,675.5C 172.663,675.832 131.997,675.499 91.5,674.5C 131.833,674.5 172.167,674.5 212.5,674.5C 212.5,667.833 212.5,661.167 212.5,654.5 Z"/></g>
<g><path style="opacity:1" fill="#e30e16" d="M 211.5,687.5 C 212.496,687.414 213.329,687.748 214,688.5C 222.172,711.017 230.338,733.517 238.5,756C 201.539,769.932 164.539,783.765 127.5,797.5C 118.94,775.314 111.106,752.981 104,730.5C 110.098,727.521 116.265,725.521 122.5,724.5C 128.073,739.722 133.74,754.889 139.5,770C 147.956,768.117 156.29,765.617 164.5,762.5C 159.61,747.998 154.61,733.498 149.5,719C 154.699,715.648 160.366,713.148 166.5,711.5C 167.167,711.833 167.833,712.167 168.5,712.5C 173.235,725.872 178.068,739.205 183,752.5C 183.388,753.428 184.055,754.095 185,754.5C 194.479,751.509 203.646,747.843 212.5,743.5C 206.593,727.278 200.593,711.111 194.5,695C 200.192,692.387 205.859,689.887 211.5,687.5 Z"/></g>
<g><path style="opacity:1" fill="#e30e16" d="M 982.5,720.5 C 1018.04,735.934 1053.37,751.934 1088.5,768.5C 1088.83,769 1089.17,769.5 1089.5,770C 1087.23,776.043 1084.56,781.876 1081.5,787.5C 1045.96,771.226 1010.62,754.726 975.5,738C 977.985,732.202 980.318,726.368 982.5,720.5 Z"/></g>
<g><path style="opacity:1" fill="#e4171b" d="M 1099.5,776.5 C 1105.57,778.969 1111.57,781.636 1117.5,784.5C 1115.59,788.727 1113.59,792.894 1111.5,797C 1105.24,795.376 1099.24,792.876 1093.5,789.5C 1095.51,785.137 1097.51,780.804 1099.5,776.5 Z"/></g>
<g><path style="opacity:1" fill="#e30713" d="M 500.5,1004.5 C 505.167,1004.5 509.833,1004.5 514.5,1004.5C 514.5,1041.83 514.5,1079.17 514.5,1116.5C 509.167,1116.5 503.833,1116.5 498.5,1116.5C 498.831,1089.66 498.498,1062.99 497.5,1036.5C 491.762,1043.21 484.762,1048.21 476.5,1051.5C 475.336,1045.19 475.169,1038.86 476,1032.5C 488.293,1026.71 496.46,1017.38 500.5,1004.5 Z"/></g>
<g><path style="opacity:1" fill="#ee636a" d="M 500.5,1004.5 C 505.305,1003.51 510.305,1003.18 515.5,1003.5C 515.5,1041.5 515.5,1079.5 515.5,1117.5C 509.5,1117.5 503.5,1117.5 497.5,1117.5C 497.5,1090.5 497.5,1063.5 497.5,1036.5C 498.498,1062.99 498.831,1089.66 498.5,1116.5C 503.833,1116.5 509.167,1116.5 514.5,1116.5C 514.5,1079.17 514.5,1041.83 514.5,1004.5C 509.833,1004.5 505.167,1004.5 500.5,1004.5 Z"/></g>
<g><path style="opacity:1" fill="#e30f17" d="M 561.5,1004.5 C 577.534,1002.43 588.7,1008.76 595,1023.5C 597.812,1030.56 599.479,1037.89 600,1045.5C 601.812,1063.52 600.145,1081.19 595,1098.5C 586.33,1117.26 572.496,1122.76 553.5,1115C 546.429,1108.36 542.429,1100.19 541.5,1090.5C 547.191,1090.02 552.858,1089.35 558.5,1088.5C 559.152,1099.7 564.485,1103.2 574.5,1099C 576.894,1097.05 578.394,1094.55 579,1091.5C 580.879,1084.57 581.879,1077.57 582,1070.5C 570.406,1082.69 559.072,1082.35 548,1069.5C 537.682,1050.57 538.015,1031.9 549,1013.5C 552.616,1009.62 556.783,1006.62 561.5,1004.5 Z"/></g>
<g><path style="opacity:1" fill="#e30e16" d="M 703.5,1004.5 C 731.123,1004.05 741.956,1017.38 736,1044.5C 734.015,1049.49 730.848,1053.49 726.5,1056.5C 740.37,1066.96 744.537,1080.63 739,1097.5C 734.891,1111.77 725.391,1119.11 710.5,1119.5C 691.087,1116.07 681.42,1104.41 681.5,1084.5C 681.377,1072.75 686.044,1063.41 695.5,1056.5C 682.15,1044.43 679.983,1030.43 689,1014.5C 692.977,1009.77 697.811,1006.44 703.5,1004.5 Z"/></g>
<g><path style="opacity:1" fill="#e30c15" d="M 640.5,1112.5 C 639.566,1113.57 639.232,1114.9 639.5,1116.5C 634.167,1116.5 628.833,1116.5 623.5,1116.5C 624.336,1084.16 633.336,1054.33 650.5,1027C 637.504,1026.5 624.504,1026.33 611.5,1026.5C 611.5,1019.83 611.5,1013.17 611.5,1006.5C 631.167,1006.5 650.833,1006.5 670.5,1006.5C 670.666,1011.84 670.499,1017.18 670,1022.5C 651.474,1049.58 641.641,1079.58 640.5,1112.5 Z"/></g>
<g><path style="opacity:1" fill="#fefbfb" d="M 706.5,1021.5 C 713.617,1020.14 718.451,1022.81 721,1029.5C 722.347,1035.6 721.18,1041.1 717.5,1046C 709.829,1050.53 704.329,1048.7 701,1040.5C 700.333,1036.5 700.333,1032.5 701,1028.5C 701.967,1025.38 703.8,1023.05 706.5,1021.5 Z"/></g>
<g><path style="opacity:1" fill="#fefafb" d="M 563.5,1022.5 C 572.465,1021.62 577.965,1025.62 580,1034.5C 581.825,1044 580.325,1052.83 575.5,1061C 570.182,1064.69 565.349,1064.19 561,1059.5C 556.439,1050.21 555.439,1040.55 558,1030.5C 559.273,1027.4 561.107,1024.74 563.5,1022.5 Z"/></g>
<g><path style="opacity:1" fill="#fefbfb" d="M 706.5,1065.5 C 715.044,1064.54 720.544,1068.2 723,1076.5C 724.31,1083.87 723.31,1090.87 720,1097.5C 716.257,1101.26 711.757,1102.43 706.5,1101C 698.931,1094.51 696.431,1086.34 699,1076.5C 700.043,1071.72 702.543,1068.05 706.5,1065.5 Z"/></g>
<g><path style="opacity:1" fill="#ee6b71" d="M 640.5,1112.5 C 640.5,1114.17 640.5,1115.83 640.5,1117.5C 634.642,1117.82 628.975,1117.49 623.5,1116.5C 628.833,1116.5 634.167,1116.5 639.5,1116.5C 639.232,1114.9 639.566,1113.57 640.5,1112.5 Z"/></g>
</svg>
